<?xml version="1.0" encoding="UTF-8" standalone="no"?>
<!DOCTYPE svg PUBLIC "-//W3C//DTD SVG 1.1//EN" "http://www.w3.org/Graphics/SVG/1.1/DTD/svg11.dtd">
<svg version="1.1" xmlns="http://www.w3.org/2000/svg" xmlns:xlink="http://www.w3.org/1999/xlink"
    preserveAspectRatio="xMidYMid meet" viewBox="0 0 581 234" width="581" height="234">
    <defs>
        <path
            d="M126.77 0.39L131.49 0.87L136.16 1.53L140.77 2.38L145.31 3.41L149.78 4.61L154.18 5.98L158.51 7.51L162.75 9.21L166.92 11.07L170.99 13.09L174.97 15.25L178.86 17.56L182.66 20.02L186.34 22.62L189.93 25.35L193.4 28.22L196.76 31.21L200 34.33L200 34.34L179.29 55.04L176.86 52.7L174.34 50.46L171.74 48.31L169.05 46.26L166.28 44.31L163.44 42.47L160.52 40.73L157.54 39.11L154.48 37.6L151.36 36.2L148.17 34.93L144.93 33.78L141.63 32.75L138.27 31.85L134.87 31.08L131.41 30.45L127.91 29.95L124.37 29.59L120.79 29.37L117.17 29.29L113.55 29.37L109.96 29.59L106.42 29.95L102.92 30.45L99.47 31.08L96.06 31.85L92.71 32.75L89.4 33.78L86.16 34.93L82.98 36.2L79.85 37.6L76.8 39.11L73.81 40.73L70.89 42.47L68.05 44.31L65.28 46.26L62.6 48.31L59.99 50.46L57.47 52.7L55.04 55.04L52.7 57.48L50.46 59.99L48.31 62.6L46.26 65.29L44.31 68.05L42.47 70.89L40.73 73.81L39.11 76.8L37.6 79.86L36.2 82.98L34.93 86.16L33.78 89.41L32.75 92.71L31.85 96.06L31.08 99.47L30.44 102.92L29.94 106.42L29.58 109.97L29.37 113.55L29.29 117.17L29.37 120.79L29.58 124.37L29.94 127.91L30.44 131.41L31.08 134.87L31.85 138.27L32.75 141.63L33.78 144.93L34.93 148.17L36.2 151.36L37.6 154.48L39.11 157.54L40.73 160.53L42.47 163.44L44.31 166.29L46.26 169.05L48.31 171.74L50.46 174.34L52.7 176.86L55.04 179.29L57.47 181.63L59.99 183.88L62.6 186.03L65.28 188.08L68.05 190.03L70.89 191.87L73.81 193.6L76.8 195.23L79.85 196.74L82.98 198.13L86.16 199.41L89.4 200.56L92.71 201.59L96.06 202.49L99.47 203.26L102.92 203.89L106.42 204.39L109.96 204.75L113.55 204.97L117.17 205.04L120.79 204.97L124.37 204.75L127.91 204.39L131.41 203.89L134.87 203.26L138.27 202.49L141.63 201.59L144.93 200.56L148.17 199.41L151.36 198.13L154.48 196.74L157.54 195.23L160.52 193.6L163.44 191.87L166.28 190.03L169.05 188.08L171.74 186.03L174.34 183.88L176.86 181.63L179.29 179.3L200 200L196.76 203.12L193.4 206.11L189.93 208.98L186.34 211.71L182.66 214.31L178.86 216.77L174.97 219.08L170.99 221.24L166.92 223.26L162.75 225.12L158.51 226.82L154.18 228.35L149.78 229.72L145.31 230.92L140.77 231.95L136.16 232.8L131.49 233.46L126.77 233.94L121.99 234.23L117.17 234.33L112.34 234.23L107.56 233.94L102.84 233.46L98.17 232.8L93.57 231.95L89.02 230.92L84.55 229.72L80.15 228.35L75.82 226.82L71.58 225.12L67.42 223.26L63.34 221.24L59.36 219.08L55.47 216.77L51.68 214.31L47.99 211.71L44.41 208.98L40.93 206.11L37.57 203.12L34.33 200L31.21 196.76L28.22 193.4L25.35 189.92L22.62 186.34L20.02 182.65L17.56 178.86L15.25 174.97L13.09 170.99L11.07 166.91L9.21 162.75L7.51 158.51L5.98 154.18L4.61 149.78L3.41 145.31L2.38 140.77L1.53 136.16L0.87 131.49L0.39 126.77L0.1 121.99L0 117.16L0.1 112.34L0.39 107.56L0.87 102.84L1.53 98.17L2.38 93.56L3.41 89.02L4.61 84.55L5.98 80.15L7.51 75.82L9.21 71.58L11.07 67.42L13.09 63.34L15.25 59.36L17.56 55.47L20.02 51.68L22.62 47.99L25.35 44.41L28.22 40.93L31.21 37.57L34.33 34.33L37.57 31.21L40.93 28.22L44.41 25.35L47.99 22.62L51.68 20.02L55.47 17.56L59.36 15.25L63.34 13.09L67.42 11.07L71.58 9.21L75.82 7.51L80.15 5.98L84.55 4.61L89.02 3.41L93.57 2.38L98.17 1.53L102.84 0.87L107.56 0.39L112.34 0.1L117.17 0L121.99 0.1L126.77 0.39Z"
            id="f2VlxI7gDw"></path>
        <path
            d="M42.18 117.16C42.18 161.11 73.21 192.15 117.16 192.15C161.12 192.15 192.15 161.11 192.15 117.16C192.15 73.21 161.12 42.18 117.16 42.18C73.21 42.18 42.18 73.21 42.18 117.16ZM92.89 66.06C93.77 62.66 94.86 59.35 96.14 56.13C102.65 53.87 109.48 52.67 116.37 52.56C107.89 55.97 100 60.53 92.89 66.06ZM130.14 53.86C133.98 54.66 137.73 55.8 141.36 57.28C139.02 59.27 136.76 61.35 134.57 63.54C127.12 70.98 120.8 79.34 115.71 88.35C115.5 88.33 115.28 88.32 115.07 88.32C110.79 88.32 107.33 91.79 107.33 96.06C107.33 98.02 108.07 99.9 109.41 101.33C106.91 107.4 104.93 113.69 103.5 120.11C100.9 119.25 98.36 118.27 95.88 117.16C94.11 112.61 92.73 107.86 91.78 102.96C94.37 101.63 95.99 98.97 96 96.06C95.99 92.56 93.64 89.5 90.26 88.59C90.25 88.06 90.24 87.52 90.24 86.99C90.24 82.79 90.56 78.67 91.15 74.64C102.09 64.8 115.41 57.57 130.14 53.86C130.14 53.86 130.14 53.86 130.14 53.86ZM86.02 71.93C78.56 78.93 72.2 87.08 67.22 96.1C64.65 93.18 62.29 90.08 60.14 86.82C66.63 74.64 76.85 64.87 89.3 58.92C87.9 63.13 86.78 67.47 86.02 71.93ZM180.91 106.68C178.61 108.47 176.21 110.15 173.73 111.7C172.32 110.51 170.54 109.85 168.7 109.85C164.42 109.85 160.96 113.31 160.96 117.59C160.96 117.8 160.97 118.01 160.99 118.22C151.34 122.15 140.79 124.32 129.71 124.32C122.49 124.32 115.48 123.4 108.79 121.67C110.13 115.55 112 109.56 114.35 103.77C114.59 103.79 114.83 103.8 115.07 103.8C119.34 103.8 122.81 100.34 122.81 96.06C122.81 94.08 122.05 92.17 120.68 90.73C125.5 82.28 131.46 74.43 138.46 67.43C141.15 64.74 143.99 62.23 146.92 59.85C164.99 69.23 177.59 86.58 180.91 106.68ZM84.74 86.99C84.74 87.71 84.75 88.43 84.77 89.15C82.16 90.46 80.51 93.14 80.51 96.06C80.52 99.58 82.89 102.65 86.29 103.54C86.94 106.97 87.78 110.33 88.81 113.61C82.35 109.96 76.43 105.48 71.19 100.3C74.93 93.19 79.57 86.63 84.96 80.77C84.82 82.82 84.74 84.9 84.74 86.99ZM64.56 101.31C59.61 111.71 56.46 123.13 55.49 135.16C55.32 135.03 55.16 134.89 55 134.77C53.37 129.04 52.54 123.12 52.54 117.16C52.55 108.71 54.21 100.35 57.44 92.54C59.63 95.61 62 98.55 64.56 101.31ZM91.6 121.23C94.11 127.22 97.26 132.88 100.96 138.12C100.82 140.47 100.74 142.83 100.74 145.2C100.74 148.06 100.85 150.9 101.06 153.72C96.88 153.15 92.79 152.32 88.8 151.25C88.53 147.18 85.15 144.03 81.08 144.03C78.89 144.03 76.82 144.95 75.35 146.57C70.26 144.38 65.38 141.78 60.77 138.81C61.31 126.97 64.08 115.73 68.67 105.48C75.4 111.86 83.13 117.19 91.6 121.23ZM181.79 117.16C181.79 121.44 181.36 125.7 180.52 129.9C172.94 136.55 164.33 142.08 154.98 146.21C153.51 144.53 151.39 143.56 149.15 143.55C144.98 143.56 141.56 146.87 141.42 151.05C135.9 152.57 130.19 153.64 124.33 154.2C117.57 149.25 111.58 143.29 106.59 136.56C106.84 133.37 107.23 130.21 107.75 127.08C114.78 128.87 122.13 129.82 129.71 129.82C141.63 129.82 152.98 127.45 163.36 123.18C164.79 124.56 166.71 125.33 168.7 125.33C172.97 125.33 176.44 121.87 176.44 117.59C176.44 117.23 176.41 116.88 176.36 116.52C178.16 115.4 179.93 114.22 181.64 112.98C181.74 114.37 181.79 115.77 181.79 117.16ZM102.43 125.54C102.21 126.82 102.01 128.11 101.83 129.4C100.86 127.76 99.95 126.09 99.09 124.39C100.19 124.79 101.31 125.17 102.43 125.54ZM178.9 136.26C179.1 135.55 179.28 134.84 179.45 134.12C179.28 134.84 179.1 135.55 178.9 136.26ZM156.37 168.48C147.44 166.61 139.03 163.32 131.4 158.84C135.42 158.21 139.36 157.33 143.21 156.25C144.68 158.02 146.86 159.04 149.15 159.04C153.4 159.04 156.85 155.61 156.89 151.36C164.38 148.08 171.41 143.96 177.86 139.11C173.66 150.76 166.2 160.95 156.37 168.48ZM116.08 154.65C115.64 154.65 115.2 154.66 114.76 154.66C112.02 154.66 109.31 154.54 106.63 154.33C106.37 151.3 106.24 148.26 106.24 145.2C106.24 145.1 106.25 144.99 106.25 144.89C109.27 148.39 112.56 151.65 116.08 154.65ZM73.34 151.68C73.34 151.71 73.34 151.74 73.33 151.77C73.33 156.04 76.8 159.51 81.08 159.51C83.47 159.51 85.73 158.4 87.19 156.5C91.88 157.77 96.69 158.73 101.61 159.34C102.52 166.67 104.14 173.85 106.4 180.82C87.15 177.55 70.42 165.76 60.86 148.74C60.79 147.57 60.73 146.39 60.7 145.21C60.7 145.21 60.7 145.21 60.7 145.21C66.21 148.27 70.42 150.42 73.34 151.68ZM150.24 172.6C140.24 178.59 128.82 181.77 117.16 181.79C115.58 181.77 114 181.69 112.43 181.55C109.97 174.55 108.23 167.3 107.23 159.89C109.72 160.07 112.23 160.16 114.76 160.16C117.48 160.16 120.17 160.05 122.83 159.85C131.06 165.58 140.31 169.9 150.24 172.6Z"
            id="a4EjorX8gE"></path>
        <path
            d="M366.53 537.62C366.53 537.62 366.53 537.62 366.53 537.62C366.53 537.62 366.53 537.62 366.53 537.62C366.53 537.62 366.53 537.62 366.53 537.62C366.53 537.62 366.53 537.62 366.53 537.62Z"
            id="g70oa0XxCb"></path><text id="a5Dj5nXj4y" x="283.37" y="237.16" font-size="160" font-family="Petrona"
            font-weight="normal" font-style="normal" letter-spacing="0" alignment-baseline="before-edge"
            transform="matrix(1 0 0 1 -81.38613861386125 -165.56435643564356)" style="line-height:100%"
            xml:space="preserve" dominant-baseline="text-before-edge">
            <tspan x="283.37" dy="0em" alignment-baseline="before-edge" dominant-baseline="text-before-edge"
                text-anchor="start">Trace</tspan>
        </text>
        <style id="petronanormalnormal">
            @font-face {
                font-family: "Petrona";
                font-weight: 500;
                src: url("https://fonts.googleapis.com/css2?family=Petrona:wght@500");
            }
        </style>
        <path d="M202.88 224.33L580.97 224.33L580.97 234.33L202.88 234.33L202.88 224.33Z" id="a8f3Zmfds"></path>
    </defs>
    <g>
        <g>
            <g>
                <use xlink:href="#f2VlxI7gDw" opacity="1" fill="#ccc" fill-opacity="1"></use>
            </g>
            <g>
                <use xlink:href="#a4EjorX8gE" opacity="1" fill="#9fb8ad" fill-opacity="1"></use>
                <g>
                    <use xlink:href="#a4EjorX8gE" opacity="1" fill-opacity="0" stroke="#000000" stroke-width="1"
                        stroke-opacity="0"></use>
                </g>
            </g>
            <g>
                <use xlink:href="#g70oa0XxCb" opacity="1" fill="#000000" fill-opacity="1"></use>
            </g>
            <g id="bRLS82kdP">
                <use xlink:href="#a5Dj5nXj4y" opacity="1" fill="#ccc" fill-opacity="1"></use>
            </g>
            <g>
                <use xlink:href="#a8f3Zmfds" opacity="1" fill="#fb743e" fill-opacity="1"></use>
            </g>
        </g>
    </g>
</svg>